<?xml version="1.0" standalone="no"?>
<!DOCTYPE svg PUBLIC "-//W3C//DTD SVG 20010904//EN"
 "http://www.w3.org/TR/2001/REC-SVG-20010904/DTD/svg10.dtd">
<svg version="1.0" xmlns="http://www.w3.org/2000/svg"
 width="90.000000pt" height="90.000000pt" viewBox="0 0 90.000000 90.000000"
 preserveAspectRatio="xMidYMid meet">
<metadata>
Created by potrace 1.14, written by Peter Selinger 2001-2017
</metadata>
<g transform="translate(0.000000,90.000000) scale(0.100000,-0.100000)"
fill="#000000" stroke="none">
<path d="M192 835 c-19 -39 -21 -57 -17 -131 2 -55 10 -95 20 -110 14 -22 14
-27 -1 -55 -11 -23 -15 -52 -13 -109 3 -78 -6 -106 -49 -150 -19 -18 -57 -104
-66 -147 -7 -29 -5 -34 19 -43 57 -22 65 -16 65 51 0 53 4 66 31 100 17 21 35
39 40 39 6 0 9 -38 7 -92 -3 -90 -3 -92 -33 -108 -22 -12 -31 -25 -33 -48 -3
-30 -1 -32 28 -32 17 0 40 5 51 10 31 17 56 88 58 162 1 77 14 118 36 118 12
0 15 -13 15 -61 0 -91 19 -119 83 -119 33 0 37 3 37 25 0 18 -7 28 -25 35 -23
9 -44 54 -31 67 3 3 17 1 31 -5 14 -7 41 -12 59 -12 31 0 34 -3 46 -45 7 -25
25 -59 40 -75 24 -26 35 -30 79 -30 42 0 51 3 51 18 0 24 -19 42 -45 42 -27 0
-51 26 -60 65 l-7 30 18 -25 c25 -34 44 -48 78 -56 35 -8 46 6 46 61 0 47 8
61 35 66 47 9 66 114 27 149 -10 9 -18 33 -19 57 -3 59 -25 105 -57 122 -24
13 -28 13 -44 -3 -11 -10 -17 -32 -17 -59 0 -59 -24 -61 -53 -3 -27 58 -65 71
-95 35 l-19 -24 -24 28 c-28 32 -90 57 -145 57 l-39 0 -1 58 c-1 31 -1 72 0
91 4 49 -27 101 -59 101 -21 0 -30 -9 -48 -45z m56 18 c-9 -2 -19 -10 -22 -18
-3 -8 0 -12 7 -10 30 11 38 -12 40 -116 l2 -104 40 3 c80 5 192 -58 181 -102
-3 -13 3 -39 13 -58 17 -35 17 -37 0 -59 -10 -13 -18 -40 -18 -59 l0 -35 13
25 c8 14 12 28 9 33 -3 4 8 20 23 34 l27 25 18 -23 c10 -13 19 -27 19 -30 0
-14 66 -25 88 -16 18 8 29 6 53 -12 17 -13 37 -20 45 -17 8 3 14 1 14 -5 0 -5
-8 -12 -17 -15 -10 -3 -30 -11 -45 -19 -23 -11 -29 -11 -39 1 -18 21 -29 17
-29 -11 0 -38 28 -88 46 -81 8 3 14 1 14 -5 0 -36 -68 -6 -89 39 -6 13 -20 22
-32 22 -19 0 -21 -4 -16 -37 9 -53 38 -87 75 -91 45 -5 40 -22 -6 -22 -48 0
-69 21 -93 92 -16 48 -16 53 -2 59 11 4 13 8 6 12 -7 4 -14 3 -18 -3 -9 -14
-63 -12 -110 4 -49 17 -55 14 -55 -29 0 -25 8 -40 30 -58 17 -14 30 -28 30
-31 0 -9 -43 -7 -59 3 -17 11 -33 98 -22 119 6 12 3 24 -10 41 -23 28 -42 23
-67 -19 -10 -16 -22 -27 -25 -23 -4 3 -7 -5 -8 -18 -1 -14 -5 -5 -10 20 -5 24
-11 46 -14 50 -4 3 -29 -18 -57 -47 -50 -53 -50 -53 -46 -108 4 -51 3 -54 -18
-54 -25 0 -45 21 -26 28 7 2 10 8 7 12 -7 11 17 90 27 90 5 0 8 5 8 11 0 6 16
30 35 53 34 41 35 46 35 123 0 52 5 91 15 109 19 36 19 54 0 90 -8 16 -15 41
-15 56 0 15 -4 38 -10 53 -8 20 -7 27 5 32 13 4 13 8 3 21 -10 12 -10 16 0 19
6 3 12 15 12 28 0 24 12 34 40 33 11 0 11 -1 -2 -5z m497 -283 c10 -11 21 -41
25 -66 6 -38 4 -46 -12 -55 -15 -8 -18 -6 -18 11 0 22 -7 25 -30 10 -12 -8
-12 -10 3 -16 9 -3 14 -10 11 -16 -3 -5 -12 -7 -20 -4 -7 3 -32 -1 -54 -9 -22
-8 -46 -13 -53 -10 -6 2 -25 6 -40 10 -19 4 -33 16 -42 38 -12 28 -11 35 8 69
13 21 30 38 40 38 17 0 44 -36 69 -91 10 -22 14 -24 35 -15 18 9 23 19 23 53
0 74 19 92 55 53z m-64 -183 c-1 -4 -1 -14 -1 -23 0 -8 -4 -12 -10 -9 -13 8
-13 48 1 43 6 -2 10 -7 10 -11z m79 -3 c0 -8 -5 -12 -10 -9 -6 4 -8 11 -5 16
9 14 15 11 15 -7z m-485 -244 c-4 -88 -27 -119 -87 -120 -23 0 -23 29 0 37 44
15 62 45 62 101 0 45 2 52 14 43 9 -7 13 -29 11 -61z"/>
<path d="M331 397 c-6 -6 -17 -12 -23 -12 -6 0 -13 -6 -15 -12 -8 -22 36 -14
47 8 14 25 9 34 -9 16z"/>
<path d="M271 294 c0 -11 3 -14 6 -6 3 7 2 16 -1 19 -3 4 -6 -2 -5 -13z"/>
<path d="M580 460 c0 -5 5 -10 11 -10 5 0 7 5 4 10 -3 6 -8 10 -11 10 -2 0 -4
-4 -4 -10z"/>
</g>
</svg>
